<?xml version="1.0" standalone="no"?>
<!DOCTYPE svg PUBLIC "-//W3C//DTD SVG 20010904//EN"
 "http://www.w3.org/TR/2001/REC-SVG-20010904/DTD/svg10.dtd">
<svg version="1.0" xmlns="http://www.w3.org/2000/svg"
 width="300.000000pt" height="169.000000pt" viewBox="0 0 300.000000 169.000000"
 preserveAspectRatio="xMidYMid meet">
<metadata>
Created by potrace 1.10, written by Peter Selinger 2001-2011
</metadata>
<g transform="translate(0.000000,169.000000) scale(0.100000,-0.100000)"
fill="#000000" stroke="none">
<path d="M1320 1508 c-99 -10 -297 -53 -315 -68 -7 -6 -15 -33 -19 -60 -5 -40
-11 -51 -29 -55 -12 -3 -49 -11 -82 -17 l-60 -13 -47 -185 c-25 -102 -47 -193
-47 -202 -1 -9 27 -37 65 -65 58 -42 71 -58 109 -134 110 -218 295 -396 522
-500 l83 -39 83 39 c227 104 412 282 522 500 38 76 51 92 109 134 38 28 66 56
65 65 0 9 -22 100 -47 202 l-47 185 -60 13 c-33 6 -70 14 -82 17 -18 4 -24 15
-29 55 -4 27 -12 54 -19 60 -20 17 -219 58 -334 70 -118 11 -219 11 -341 -2z
m355 -29 c33 -1 65 -5 70 -9 6 -4 28 -10 50 -13 161 -23 189 -34 193 -80 2
-36 20 -77 32 -77 5 0 10 -4 10 -10 0 -5 -9 -10 -19 -10 -23 0 -38 -19 -23
-29 5 -3 11 -15 13 -26 3 -11 13 -21 24 -23 45 -7 50 -12 33 -28 -11 -12 -14
-28 -11 -55 5 -31 2 -39 -10 -39 -16 0 -20 9 -32 68 -12 60 -84 67 -85 8 -1
-18 -3 -18 -16 8 -11 20 -13 31 -5 39 6 6 11 31 11 55 0 32 3 41 13 36 9 -5 9
-4 0 6 -9 10 -7 16 9 30 16 12 19 23 14 43 -5 21 -16 29 -59 42 -28 9 -65 18
-82 20 -16 3 -59 9 -95 14 -83 11 -384 7 -475 -8 -125 -20 -172 -38 -179 -67
-8 -30 9 -55 30 -47 16 6 18 -14 5 -71 -6 -25 -6 -45 1 -56 8 -12 8 -25 0 -46
l-10 -29 -1 26 c-2 55 -64 64 -91 13 -14 -25 -15 -25 -30 -6 -9 10 -22 21 -30
24 -9 3 3 10 28 17 30 9 42 17 42 31 0 10 6 21 13 23 7 4 6 6 -4 6 -20 1 -42
-23 -31 -34 4 -4 0 -5 -8 -3 -8 3 -23 -2 -34 -11 -18 -15 -18 -15 -12 7 5 13
3 22 -3 22 -6 0 -11 -14 -11 -31 0 -16 -4 -28 -9 -25 -15 9 -71 -18 -77 -38
-5 -14 -8 -16 -14 -5 -5 7 -6 18 -2 23 3 6 7 17 7 26 6 66 15 78 66 90 49 12
80 7 43 -7 -20 -7 -43 -32 -44 -46 0 -5 7 -1 16 7 8 9 24 16 35 16 10 0 19 7
19 15 0 17 17 20 22 4 2 -6 11 -7 22 -3 18 7 17 8 -5 16 -21 8 -22 11 -8 19
17 9 30 44 34 87 3 30 14 40 50 44 17 2 33 8 37 13 5 6 8 5 8 -2 0 -7 5 -13
11 -13 5 0 7 5 3 12 -4 6 -3 8 4 4 6 -3 13 -2 17 4 3 5 26 10 50 10 24 0 46 4
49 8 3 5 44 10 92 10 48 1 88 3 90 4 2 3 119 1 249 -3z m35 -50 c47 -5 115
-17 151 -25 58 -13 68 -18 72 -40 4 -22 2 -24 -22 -20 -52 11 -287 26 -405 26
-123 0 -387 -16 -418 -26 -14 -4 -18 0 -18 20 0 23 6 26 73 41 39 9 101 20
137 24 96 12 333 13 430 0z m-383 -114 c1 -19 -3 -35 -8 -35 -5 0 -9 9 -9 19
0 11 -5 23 -12 27 -8 5 -6 10 8 15 10 4 19 8 20 8 0 1 0 -15 1 -34z m133 25
c0 -5 -2 -10 -4 -10 -3 0 -8 5 -11 10 -3 6 -1 10 4 10 6 0 11 -4 11 -10z m135
0 c-3 -5 -10 -10 -16 -10 -5 0 -9 5 -9 10 0 6 7 10 16 10 8 0 12 -4 9 -10z
m96 1 c3 -1 4 -14 1 -31 -2 -16 -9 -27 -14 -24 -5 3 -7 12 -4 19 2 7 -2 16
-10 19 -20 8 -17 25 4 21 9 -2 20 -4 23 -4z m-459 -13 c-9 -9 -15 -9 -24 0 -9
9 -7 12 12 12 19 0 21 -3 12 -12z m575 6 c-3 -3 -12 -4 -19 -1 -8 3 -5 6 6 6
11 1 17 -2 13 -5z m-524 -33 c3 -16 9 -40 13 -55 5 -19 2 -26 -9 -26 -8 0 -17
6 -20 13 -3 10 -9 10 -26 0 -36 -22 -38 -15 -12 42 29 61 46 69 54 26z m107 2
l14 -28 4 28 c6 46 22 30 22 -23 0 -58 -22 -69 -42 -22 l-12 27 -4 -27 c-2
-16 -9 -28 -15 -28 -8 0 -11 16 -9 50 4 57 21 66 42 23z m160 17 c0 -5 -6 -10
-13 -10 -9 0 -11 -12 -9 -40 3 -32 1 -40 -12 -40 -12 0 -16 10 -16 40 0 29 -4
40 -15 40 -8 0 -15 5 -15 10 0 6 18 10 40 10 22 0 40 -4 40 -10z m108 -42 c24
-56 23 -68 -1 -43 -18 18 -44 20 -49 4 -2 -7 -9 -10 -14 -8 -14 6 14 99 30 99
6 0 22 -23 34 -52z m119 37 c3 -9 2 -19 -2 -23 -4 -4 -10 -1 -12 6 -6 15 -23
16 -23 2 0 -6 11 -15 25 -20 18 -7 25 -17 25 -35 0 -21 -5 -25 -30 -25 -30 0
-51 23 -35 38 4 4 10 1 12 -5 5 -15 33 -18 33 -4 0 5 -13 14 -30 20 -28 9 -40
37 -23 54 12 13 54 7 60 -8z m-587 -5 c0 -5 -11 -10 -25 -10 -14 0 -25 -4 -25
-10 0 -5 9 -10 20 -10 27 0 25 -18 -2 -22 -15 -2 -24 -11 -26 -25 -2 -13 -9
-23 -17 -23 -10 0 -11 9 -4 43 5 23 12 48 14 55 5 14 65 17 65 2z m663 -12
l16 -23 0 23 c1 13 7 22 17 22 12 0 13 -5 7 -22 -4 -13 -7 -38 -7 -55 0 -21
-4 -33 -13 -33 -7 0 -13 8 -13 18 0 9 -9 32 -20 50 -22 36 -24 42 -11 42 5 0
16 -10 24 -22z m-641 -10 c-7 -7 -12 -8 -12 -2 0 14 12 26 19 19 2 -3 -1 -11
-7 -17z m353 -28 l-14 -45 0 36 c-1 19 4 40 11 47 18 18 18 10 3 -38z m-87 2
c2 -18 -1 -32 -7 -32 -12 0 -13 2 -15 43 -3 38 18 28 22 -11z m668 13 c18 -6
26 -26 48 -118 15 -62 35 -143 44 -180 15 -63 15 -70 1 -80 -80 -60 -129 -105
-129 -120 0 -5 -25 -52 -57 -105 -53 -91 -137 -201 -175 -230 -9 -7 -29 -25
-45 -40 -76 -74 -284 -195 -335 -194 -15 0 -37 8 -51 16 -13 9 -27 13 -30 9
-4 -3 -7 -1 -7 5 0 7 -3 11 -7 10 -17 -4 -93 43 -87 54 4 7 3 8 -5 4 -12 -8
-81 32 -81 47 0 4 -5 7 -11 7 -6 0 -51 39 -99 88 -91 90 -162 189 -219 305
-28 54 -44 74 -87 102 -29 20 -56 40 -59 45 -3 5 0 36 6 69 11 53 14 57 24 38
9 -18 20 -23 68 -25 34 -2 57 1 57 7 0 6 16 10 36 9 21 -1 39 4 44 13 8 11 15
12 41 2 28 -11 36 -10 51 4 16 14 18 14 24 0 4 -11 17 -16 40 -15 19 1 34 4
34 8 0 4 11 12 25 18 19 9 27 8 38 -3 12 -11 18 -12 40 0 16 8 29 10 32 4 9
-13 49 -11 63 3 7 7 12 8 12 3 0 -19 107 -5 126 16 9 10 12 19 7 19 -17 0 -23
25 -14 57 9 30 13 25 27 -41 11 -49 34 -65 66 -48 20 11 23 20 22 57 -1 25 2
45 7 45 4 0 8 -17 9 -37 1 -88 -5 -82 82 -80 42 1 85 0 95 -4 10 -4 25 0 35 8
14 13 19 12 37 -6 17 -17 25 -19 42 -11 15 8 24 8 34 0 8 -7 40 -13 72 -15 32
-2 83 -7 114 -10 46 -6 57 -4 62 9 10 26 -3 46 -39 61 -28 12 -35 20 -40 55
-4 25 -15 48 -30 59 -21 17 -23 22 -12 51 10 30 9 35 -13 52 l-24 19 35 -5
c19 -3 45 -8 56 -11z m-73 -25 c15 0 18 -3 9 -8 -8 -5 -10 -16 -6 -28 7 -18 6
-18 -12 -3 -10 9 -23 15 -29 13 -5 -2 -15 7 -21 20 -9 19 -9 23 1 19 7 -2 17
2 21 9 7 10 9 9 12 -4 2 -11 13 -18 25 -18z m-233 -22 c0 -5 -9 -18 -20 -30
-11 -12 -20 -33 -21 -47 -1 -23 -2 -22 -10 8 -8 27 -7 37 8 53 10 11 17 30 15
42 -3 21 -2 21 13 2 8 -11 15 -24 15 -28z m-655 2 c-3 -5 -12 -10 -18 -10 -7
0 -6 4 3 10 19 12 23 12 15 0z m129 -66 c12 22 27 36 38 36 20 0 19 -4 -15
-53 l-19 -28 27 -34 26 -35 -25 0 c-17 0 -28 8 -38 30 -17 39 -28 38 -28 -3 0
-24 -5 -34 -16 -34 -14 0 -15 10 -9 71 8 79 27 107 35 50 l5 -35 19 35z m176
21 c0 -10 -10 -15 -30 -15 -20 0 -30 -5 -30 -15 0 -10 10 -15 30 -15 20 0 30
-5 30 -15 0 -10 -10 -15 -30 -15 -20 0 -30 -5 -30 -15 0 -10 10 -15 30 -15 20
0 30 -5 30 -15 0 -11 -12 -15 -51 -15 -43 0 -50 3 -45 16 3 9 6 42 6 75 l0 59
45 0 c33 0 45 -4 45 -15z m140 0 c0 -9 -9 -15 -21 -15 -20 0 -21 -4 -17 -60 4
-53 2 -60 -14 -60 -15 0 -18 9 -18 60 0 53 -2 60 -20 60 -11 0 -20 7 -20 15 0
12 13 15 55 15 42 0 55 -3 55 -15z m122 -4 c4 -3 8 -35 10 -71 l3 -65 -45 4
c-25 1 -47 5 -49 7 -2 2 -6 35 -9 75 l-5 71 44 -7 c24 -4 47 -10 51 -14z
m-535 -7 c3 -9 0 -20 -8 -25 -8 -5 -15 -4 -17 1 -5 15 -42 12 -42 -3 0 -7 15
-17 33 -22 28 -9 32 -14 28 -40 -5 -43 -7 -45 -57 -45 -38 0 -44 3 -44 20 0
18 4 20 35 14 28 -5 35 -3 35 9 0 10 -11 17 -27 19 -23 2 -29 9 -31 33 -3 19
2 33 14 42 25 18 73 16 81 -3z m683 -64 c36 -72 38 -80 21 -80 -11 0 -23 9
-26 20 -8 24 -55 28 -55 5 0 -9 -9 -15 -21 -15 -14 0 -19 5 -16 14 3 8 11 41
18 75 7 39 17 61 25 61 8 0 32 -36 54 -80z m-837 -8 c13 -68 13 -72 -5 -72
-10 0 -18 7 -18 16 0 11 -6 14 -22 9 -13 -4 -27 -12 -33 -19 -11 -14 -45 -28
-45 -20 0 3 16 36 36 72 33 61 62 97 71 89 1 -2 9 -36 16 -75z m919 33 c17
-85 17 -85 48 -85 17 0 30 -2 30 -4 0 -2 2 -11 5 -19 5 -11 -2 -13 -41 -7 -53
8 -59 15 -68 81 -4 27 -9 56 -13 65 -4 12 -1 15 13 12 12 -2 21 -16 26 -43z
m-1046 -2 c-4 -16 -9 -44 -12 -63 -3 -19 -9 -40 -15 -46 -10 -13 -87 -30 -95
-21 -2 2 3 36 13 75 18 76 18 76 92 81 21 1 23 -2 17 -26z m1174 -30 c13 -62
22 -73 58 -73 14 0 22 -6 22 -16 0 -14 -7 -15 -42 -10 -23 4 -44 9 -46 11 -2
2 -12 35 -22 74 -17 67 -17 71 -1 71 13 0 21 -14 31 -57z m-740 21 c0 -8 -5
-12 -10 -9 -6 4 -8 11 -5 16 9 14 15 11 15 -7z"/>
<path d="M1256 1281 c-4 -7 -5 -15 -2 -18 9 -9 19 4 14 18 -4 11 -6 11 -12 0z"/>
<path d="M1620 1285 c0 -8 4 -15 10 -15 5 0 7 7 4 15 -4 8 -8 15 -10 15 -2 0
-4 -7 -4 -15z"/>
<path d="M1120 982 c-130 -15 -150 -22 -150 -54 0 -10 -6 -31 -14 -46 -17 -32
-16 -130 1 -140 6 -4 34 -41 61 -82 58 -89 119 -151 126 -129 3 8 6 52 8 99 3
66 9 97 30 140 37 78 54 98 69 83 10 -10 8 -17 -9 -36 -12 -13 -22 -30 -22
-38 0 -12 -2 -12 -10 1 -9 13 -10 13 -11 0 -2 -34 -10 -65 -18 -68 -5 -2 -6
-12 -3 -24 4 -15 2 -19 -7 -13 -10 6 -11 3 -2 -14 7 -11 8 -21 4 -21 -4 0 2
-6 13 -14 15 -12 17 -17 7 -27 -19 -19 -16 -52 11 -111 24 -53 76 -118 95
-118 5 0 22 -11 38 -23 21 -18 110 -57 129 -57 1 0 10 7 18 16 14 13 18 14 31
1 21 -22 98 -4 145 33 21 16 42 30 47 30 17 0 73 69 93 114 22 52 27 86 16
104 -4 7 -2 28 4 46 6 19 8 47 5 62 -4 16 -7 35 -7 42 -1 6 -5 12 -10 12 -6 0
-8 5 -6 12 3 7 -6 22 -20 35 -14 13 -21 27 -16 34 4 7 3 9 -3 6 -6 -4 -19 3
-29 14 -10 11 -23 18 -30 15 -7 -3 -18 8 -26 24 -7 16 -21 32 -33 36 -11 3
-22 7 -25 8 -32 13 -93 16 -105 6 -11 -10 -18 -10 -29 -1 -8 7 -27 9 -47 5
-19 -4 -42 -7 -51 -8 -9 0 -14 -4 -12 -8 3 -4 -6 -8 -20 -8 -18 0 -24 -4 -20
-15 4 -8 1 -15 -5 -15 -6 0 -11 -7 -11 -16 0 -11 -5 -14 -17 -10 -9 4 -20 1
-24 -6 -6 -10 -11 -10 -20 -1 -14 14 -2 36 14 27 7 -4 9 -4 5 1 -10 10 31 41
87 66 51 22 59 33 18 23 -80 -19 -177 -107 -221 -202 -23 -49 -27 -70 -27
-147 l0 -91 -45 55 c-24 30 -65 90 -91 132 l-46 78 20 74 c23 88 4 80 242 98
169 12 238 29 110 27 -44 -1 -136 -8 -205 -16z m360 -283 l0 -231 -22 6 c-13
3 -29 6 -35 6 -8 0 -13 13 -13 31 0 17 -16 78 -35 135 -30 86 -35 115 -33 171
3 64 5 69 33 82 26 12 71 26 98 30 4 1 7 -103 7 -230z m142 204 c30 -12 39
-22 44 -49 8 -46 -10 -143 -46 -242 -16 -45 -30 -94 -30 -107 0 -14 -6 -25
-12 -25 -7 0 -22 -3 -33 -6 -20 -5 -20 0 -20 226 l0 230 30 -6 c17 -4 47 -13
67 -21z m-277 -286 c20 -58 35 -111 33 -116 -5 -16 -110 61 -146 108 -29 38
-33 50 -27 80 8 42 28 83 64 130 l26 35 6 -65 c4 -36 24 -113 44 -172z m417
164 c12 -19 27 -55 34 -81 11 -43 10 -47 -19 -88 -28 -39 -144 -128 -154 -118
-2 2 14 58 36 124 29 85 41 138 41 178 0 57 0 57 20 39 12 -10 30 -35 42 -54z
m-432 -302 c28 -13 50 -27 50 -32 0 -14 -48 -57 -64 -57 -20 0 -65 55 -92 115
-36 77 -31 92 16 41 22 -24 63 -54 90 -67z m459 46 c-21 -56 -81 -135 -102
-135 -14 0 -57 41 -57 54 0 6 28 27 62 46 33 19 73 49 87 67 14 18 27 31 28
29 2 -2 -6 -29 -18 -61z m-277 -70 c0 -5 -5 -11 -11 -13 -6 -2 -11 4 -11 13 0
9 5 15 11 13 6 -2 11 -8 11 -13z m-32 -76 c0 -45 -3 -59 -15 -59 -13 0 -106
29 -113 35 -2 1 11 16 28 33 16 17 30 37 30 44 0 10 10 13 35 10 l35 -4 0 -59z
m120 46 c0 -7 14 -25 31 -39 l31 -26 -38 -16 c-21 -9 -52 -18 -68 -21 l-31 -5
0 61 c0 59 0 60 30 63 36 4 45 1 45 -17z"/>
<path d="M1404 819 c-17 -5 -37 -16 -44 -24 -17 -20 -12 -19 51 9 54 25 51 32
-7 15z"/>
<path d="M1540 827 c3 -3 30 -15 60 -26 54 -20 54 -20 34 0 -17 16 -109 43
-94 26z"/>
<path d="M1250 689 c-31 -59 -20 -67 12 -8 16 27 24 49 18 49 -5 0 -19 -18
-30 -41z"/>
<path d="M1737 687 c16 -25 30 -41 31 -36 5 13 -30 71 -46 77 -7 2 0 -16 15
-41z"/>
<path d="M1625 990 c17 -5 94 -14 172 -20 226 -18 207 -10 230 -97 l20 -74
-49 -82 c-27 -45 -58 -92 -69 -104 -13 -13 -18 -27 -13 -35 4 -7 3 -10 -1 -5
-5 4 -18 -2 -29 -12 l-21 -20 0 92 c0 79 -4 100 -27 149 -41 89 -126 164 -210
189 -43 12 -34 0 17 -22 25 -11 45 -24 45 -29 0 -6 6 -10 13 -10 23 0 98 -90
124 -148 19 -44 26 -76 27 -139 1 -46 5 -85 9 -89 13 -13 63 40 124 133 34 53
66 105 69 116 10 31 -26 167 -48 178 -10 5 -46 12 -81 15 -34 3 -89 9 -121 14
-87 11 -220 11 -181 0z"/>
<path d="M2099 944 c-13 -15 -6 -69 12 -90 14 -17 59 -1 90 32 20 21 21 26 8
39 -23 23 -96 36 -110 19z m74 -21 l38 -6 -43 -28 -43 -29 -7 23 c-14 51 -13
52 55 40z"/>
<path d="M794 929 c-16 -17 -16 -20 -1 -36 9 -10 29 -26 46 -36 30 -17 31 -17
51 3 15 15 20 31 18 53 -3 31 -5 32 -50 33 -35 1 -52 -4 -64 -17z m95 -11 c-1
-7 -4 -23 -7 -36 l-7 -22 -40 27 c-40 27 -40 27 -15 34 41 11 70 10 69 -3z"/>
<path d="M1230 840 c0 -5 5 -10 11 -10 5 0 7 5 4 10 -3 6 -8 10 -11 10 -2 0
-4 -4 -4 -10z"/>
<path d="M1692 1153 c5 -26 38 -29 38 -4 0 15 -6 21 -21 21 -14 0 -19 -5 -17
-17z"/>
<path d="M1700 1093 c0 -12 8 -19 21 -20 14 -1 19 3 17 15 -5 24 -38 28 -38 5z"/>
<path d="M1850 1117 c0 -18 5 -27 15 -27 13 0 14 4 4 23 -17 33 -19 33 -19 4z"/>
<path d="M1012 1105 c-10 -21 -9 -25 3 -25 9 0 15 10 15 25 0 14 -2 25 -3 25
-2 0 -9 -11 -15 -25z"/>
<path d="M866 1114 c-8 -21 -3 -26 17 -18 24 9 30 34 8 34 -10 0 -22 -7 -25
-16z"/>
<path d="M853 1055 c-3 -9 -3 -18 -1 -21 9 -9 38 8 38 22 0 19 -29 18 -37 -1z"/>
</g>
</svg>
