<?xml version="1.0" standalone="no"?>
<!DOCTYPE svg PUBLIC "-//W3C//DTD SVG 20010904//EN"
 "http://www.w3.org/TR/2001/REC-SVG-20010904/DTD/svg10.dtd">
<svg version="1.0" xmlns="http://www.w3.org/2000/svg"
 width="300.000000pt" height="300.000000pt" viewBox="0 0 300.000000 300.000000"
 preserveAspectRatio="xMidYMid meet">
<metadata>
Created by potrace 1.10, written by Peter Selinger 2001-2011
</metadata>
<g transform="translate(0.000000,300.000000) scale(0.100000,-0.100000)"
fill="#000000" stroke="none">
<path d="M1540 2567 c-61 -21 -215 -26 -261 -8 -23 8 -30 6 -49 -14 -26 -27
-25 -30 33 -169 43 -100 107 -186 139 -186 34 0 116 104 180 227 l63 122 -25
24 -25 24 -55 -20z m55 -17 c-3 -5 -2 -10 4 -10 10 0 9 -9 -6 -47 -3 -10 -7
-20 -7 -23 -1 -3 -18 -33 -39 -68 -20 -35 -37 -65 -37 -68 0 -6 -50 -73 -79
-106 -27 -31 -47 -37 -37 -12 4 10 1 14 -6 12 -16 -6 -51 38 -46 54 3 7 -4 20
-15 28 -17 14 -17 17 -4 28 12 10 20 3 48 -43 18 -30 36 -55 40 -55 3 0 14 9
24 20 10 11 13 20 7 20 -7 0 -12 -4 -12 -10 0 -20 -16 -8 -50 38 -19 26 -35
49 -37 51 -1 2 -9 -2 -17 -8 -12 -10 -18 -7 -31 18 -8 17 -12 31 -9 31 4 0 -1
9 -11 20 -10 11 -19 32 -20 48 -1 15 -4 34 -6 42 -3 10 5 15 29 15 18 1 35 -2
38 -6 2 -4 13 -5 24 -2 15 4 20 0 20 -13 0 -11 4 -15 8 -9 4 6 18 11 32 13 48
6 59 8 66 14 10 11 34 -3 27 -16 -4 -6 1 -5 11 3 19 16 56 22 56 10 0 -4 -4
-19 -10 -34 -5 -14 -6 -24 -1 -21 4 3 14 26 21 51 7 25 17 45 22 45 5 0 6 -4
3 -10z"/>
<path d="M1280 2485 c0 -8 2 -15 4 -15 2 0 6 7 10 15 3 8 1 15 -4 15 -6 0 -10
-7 -10 -15z"/>
<path d="M1296 2445 c4 -8 11 -15 16 -15 6 0 5 6 -2 15 -7 8 -14 15 -16 15 -2
0 -1 -7 2 -15z"/>
<path d="M1508 2423 c6 -2 18 -2 25 0 6 3 1 5 -13 5 -14 0 -19 -2 -12 -5z"/>
<path d="M1313 2398 c1 -15 6 -23 11 -18 4 4 4 16 -2 26 -9 16 -10 14 -9 -8z"/>
<path d="M1501 2384 c0 -11 3 -14 6 -6 3 7 2 16 -1 19 -3 4 -6 -2 -5 -13z"/>
<path d="M1660 2510 c0 -25 -119 -232 -153 -268 -18 -19 -43 -39 -57 -45 -20
-8 -22 -11 -8 -14 23 -6 101 30 148 67 21 17 53 54 71 83 17 28 24 46 15 38
-21 -18 -20 -9 5 33 33 57 14 42 -21 -16 -18 -29 -25 -47 -16 -39 9 7 16 10
16 6 0 -12 -34 -65 -42 -65 -10 0 -10 13 0 26 4 5 -6 -4 -21 -20 -34 -35 -46
-28 -19 11 47 67 82 127 82 139 0 18 30 11 46 -11 9 -12 14 -14 14 -6 0 11 3
11 15 1 8 -6 19 -9 24 -6 5 4 12 2 15 -3 4 -5 -2 -12 -12 -15 -21 -7 -71 -56
-57 -56 5 0 0 -7 -11 -15 -14 -11 -15 -14 -4 -14 8 0 24 6 34 14 19 15 19 15
1 15 -25 0 -7 19 24 25 13 2 29 9 37 16 11 9 21 6 46 -13 42 -32 238 -230 238
-240 0 -4 -8 -5 -17 -2 -15 5 -15 4 -3 -4 8 -6 17 -9 21 -6 11 7 61 -66 55
-81 -3 -9 0 -12 10 -8 25 9 15 -9 -38 -71 -29 -33 -47 -57 -41 -53 9 6 11 3 6
-9 -5 -13 -10 -8 -25 23 -29 62 -61 87 -121 93 -29 3 -69 1 -91 -4 -28 -6 -44
-6 -58 3 -16 10 -18 10 -13 0 6 -9 1 -10 -18 -5 -14 3 -29 1 -32 -4 -4 -6 -10
-8 -15 -5 -5 3 -16 -5 -24 -17 -18 -29 -12 -116 9 -132 23 -17 24 -146 2 -180
-10 -15 -16 -30 -13 -34 3 -5 6 -28 7 -53 2 -32 7 -45 18 -46 111 -9 178 -9
189 0 7 6 12 6 11 1 -4 -21 2 -24 17 -9 12 11 31 16 63 14 26 -2 52 1 59 5 7
4 17 4 24 0 7 -4 8 -3 4 4 -4 7 -2 12 3 12 6 0 11 6 11 14 0 8 5 16 12 18 12
4 13 91 1 112 -4 7 -3 8 4 1 15 -14 60 -149 115 -342 12 -40 25 -73 29 -73 4
0 2 19 -7 41 -14 41 -22 74 -29 114 -2 11 -4 22 -5 25 -1 3 -2 9 -1 13 1 4 -6
21 -14 37 -8 16 -14 33 -13 37 0 4 -5 22 -12 38 -7 17 -14 33 -15 38 -2 4 -4
8 -5 10 -3 3 -9 35 -12 67 -2 14 -10 28 -18 32 -13 6 -13 7 1 7 22 1 70 -24
62 -32 -3 -4 1 -7 10 -7 9 0 21 -9 27 -20 8 -15 8 -20 -2 -20 -9 0 -9 -3 2 -9
8 -6 17 -8 21 -5 6 3 30 -83 33 -118 1 -3 4 -10 9 -14 4 -4 7 -15 7 -25 0 -39
32 -99 56 -105 18 -5 21 -9 11 -19 -10 -11 -13 -10 -19 4 -6 15 -7 15 -7 -1
-1 -28 15 -29 39 -3 13 13 28 22 34 18 6 -3 8 -3 4 2 -8 9 29 45 46 45 5 0 20
12 32 28 24 30 36 26 37 -12 0 -17 4 -23 13 -19 8 3 14 1 15 -3 0 -5 2 -17 4
-26 2 -10 0 -18 -5 -18 -4 0 -20 -12 -35 -27 l-28 -28 6 25 6 25 -19 -22 c-10
-13 -23 -23 -30 -23 -6 0 -8 -4 -5 -10 3 -5 1 -10 -5 -10 -6 0 -15 -12 -21
-27 -11 -28 -11 -28 -20 -5 -4 12 -12 22 -15 22 -4 0 -4 -3 -1 -6 3 -4 2 -16
-4 -27 -8 -14 -8 -18 0 -13 6 4 14 -1 17 -11 17 -53 25 -67 34 -53 5 7 3 23
-3 37 -8 18 -7 26 3 36 10 10 12 8 6 -8 -5 -16 -3 -15 13 5 11 13 19 29 18 34
-1 5 7 12 18 14 11 2 30 15 42 28 26 28 45 30 67 8 22 -22 20 -31 -2 -11 -25
23 -34 21 -62 -8 -13 -14 -19 -25 -14 -25 5 0 15 9 22 20 15 24 30 25 58 2 19
-16 31 -61 37 -139 1 -11 6 -19 11 -15 5 3 7 -5 4 -16 -4 -14 -2 -20 5 -15 6
4 8 -2 5 -15 -4 -14 -2 -20 5 -15 6 4 8 0 4 -10 -4 -10 -2 -16 5 -14 6 1 13
-4 16 -12 3 -9 0 -11 -9 -6 -8 5 -3 -3 10 -18 14 -15 29 -23 39 -20 10 4 13 2
8 -5 -4 -7 -2 -10 7 -6 23 8 62 -31 63 -65 4 -99 7 -124 11 -106 9 38 19 35
18 -5 0 -22 -4 -40 -9 -40 -4 0 -6 -10 -2 -23 4 -17 1 -23 -12 -25 -43 -5 -57
-10 -57 -21 0 -6 -16 -21 -35 -33 -19 -12 -29 -15 -22 -8 27 31 -5 34 -35 4
-18 -18 -16 -27 5 -19 12 4 14 3 6 -5 -11 -11 -64 -24 -64 -16 0 3 8 12 17 22
16 16 16 16 -7 9 -41 -14 -70 -7 -110 25 -21 16 -45 30 -54 30 -9 0 -34 13
-57 29 -22 17 -46 32 -52 34 -8 2 -6 9 6 21 19 20 23 61 6 72 -8 5 -10 -1 -6
-18 4 -14 1 -32 -6 -41 -11 -14 -15 -14 -40 9 -27 23 -28 27 -26 108 1 46 -1
88 -5 95 -4 6 -7 37 -6 68 0 32 -2 69 -4 83 -2 14 -5 35 -5 48 -1 12 -5 22 -9
22 -4 0 -2 -62 5 -137 7 -76 12 -172 11 -213 -1 -41 1 -81 6 -88 14 -22 215
-150 266 -168 39 -14 65 -34 111 -86 33 -37 67 -68 75 -68 25 0 107 46 146 82
28 26 36 39 31 56 -7 29 -17 28 -72 -11 -59 -43 -141 -90 -147 -84 -2 2 43 34
101 71 58 37 105 70 105 72 0 11 -23 -1 -110 -56 -87 -54 -131 -72 -130 -52 1
4 50 36 110 72 61 36 110 68 110 73 0 8 -53 -20 -158 -85 -35 -22 -68 -38 -74
-36 -11 4 63 51 168 108 54 29 61 36 61 64 2 66 -39 181 -114 320 -82 153
-216 395 -242 437 -107 175 -232 359 -241 354 -10 -6 -7 -31 5 -42 4 -4 5 -2
1 5 -9 15 6 16 22 0 15 -15 16 -65 1 -74 -12 -7 -31 15 -23 28 3 4 -2 5 -10 2
-11 -4 -16 0 -16 15 0 25 -8 26 -35 5 -18 -14 -19 -16 -3 -25 9 -5 19 -23 23
-40 6 -26 9 -28 23 -17 9 8 13 8 9 2 -4 -7 -1 -14 7 -17 9 -4 12 0 9 11 -2 10
5 23 18 30 19 12 21 12 16 -2 -3 -8 -1 -18 5 -22 7 -5 8 -2 4 7 -4 8 0 5 8 -6
9 -11 14 -26 11 -34 -3 -9 -3 -12 1 -8 11 10 56 -71 48 -86 -4 -6 -4 -9 1 -5
4 4 16 -4 27 -17 11 -14 26 -25 33 -25 13 0 55 -46 55 -59 0 -3 -15 -17 -33
-30 -17 -13 -24 -21 -14 -17 11 3 16 2 12 -4 -3 -6 -12 -10 -20 -10 -7 0 -27
-11 -43 -25 -58 -48 -97 -24 -104 65 -6 82 -67 204 -116 231 -34 19 -30 19 16
3 27 -11 1 11 -31 24 -16 7 -26 8 -22 2 10 -16 -12 -12 -29 6 -24 23 -19 60
10 83 15 12 33 21 41 21 9 0 24 11 35 25 11 14 27 25 36 24 14 0 14 -2 2 -6
-22 -8 -71 -63 -56 -63 7 0 18 11 24 25 6 14 18 25 26 25 29 0 26 21 -11 69
-21 28 -58 78 -83 112 -72 99 -300 313 -366 344 -31 15 -67 39 -80 53 -16 19
-23 22 -24 12z m-55 -233 c-5 -12 -86 -67 -100 -67 -6 0 94 78 102 80 1 0 0
-6 -2 -13z m551 -290 c-17 -41 -96 -145 -96 -127 0 7 15 34 34 60 19 26 42 62
51 80 22 42 30 32 11 -13z m-177 -12 c28 -24 52 -74 66 -138 3 -18 2 -26 -4
-23 -5 4 -13 1 -17 -5 -4 -7 -3 -9 3 -6 33 21 64 -133 37 -185 -23 -45 -48
-52 -216 -56 l-158 -4 0 56 c0 47 3 56 18 56 14 0 15 -2 2 -10 -13 -9 -13 -10
0 -10 12 0 16 22 18 125 3 110 1 124 -12 119 -13 -5 -16 2 -16 34 0 41 0 41
43 45 l42 4 -45 -1 -45 -1 -3 -47 c-2 -38 0 -48 12 -48 13 0 16 -12 14 -62
l-2 -63 -3 58 c-3 39 -8 57 -18 57 -9 0 -14 17 -17 55 -4 67 -5 66 152 61 85
-3 97 -2 45 3 l-70 7 72 2 c63 2 75 -1 102 -23z m209 4 c10 -13 8 -21 -13 -43
-13 -14 -27 -26 -30 -26 -12 0 -4 30 11 38 9 5 15 12 15 15 -2 15 -1 40 2 36
1 -2 8 -11 15 -20z m32 -139 c0 -5 -5 -10 -11 -10 -5 0 -7 5 -4 10 3 6 8 10
11 10 2 0 4 -4 4 -10z m34 -35 c4 -10 -1 -15 -14 -15 -11 0 -20 7 -20 15 0 8
6 15 14 15 8 0 16 -7 20 -15z m186 -499 c0 -3 -4 -8 -10 -11 -5 -3 -10 -1 -10
4 0 6 5 11 10 11 6 0 10 -2 10 -4z m232 -135 c-11 -6 -10 -10 4 -15 9 -3 14
-9 11 -13 -9 -8 -38 17 -31 28 3 5 11 9 17 9 8 0 8 -3 -1 -9z m43 -90 c-6 -5
-25 10 -25 20 0 5 6 4 14 -3 8 -7 12 -15 11 -17z m-24 -18 c13 -16 12 -17 -3
-4 -10 7 -18 15 -18 17 0 8 8 3 21 -13z m142 -431 c-26 -26 -74 -55 -81 -48
-3 3 -1 6 4 6 5 0 25 14 44 30 38 32 62 41 33 12z m-93 -56 c0 -3 -4 -8 -10
-11 -5 -3 -10 -1 -10 4 0 6 5 11 10 11 6 0 10 -2 10 -4z"/>
<path d="M1828 1963 c7 -3 16 -2 19 1 4 3 -2 6 -13 5 -11 0 -14 -3 -6 -6z"/>
<path d="M1944 1946 c1 -8 5 -18 8 -22 4 -3 5 1 4 10 -1 8 -5 18 -8 22 -4 3
-5 -1 -4 -10z"/>
<path d="M1772 1925 c-1 -14 1 -16 7 -6 5 8 18 11 32 7 13 -3 18 -3 11 0 -6 3
-10 9 -8 12 2 4 -6 7 -18 7 -15 0 -23 -6 -24 -20z"/>
<path d="M1863 1903 c-30 -4 -33 -7 -33 -39 0 -19 4 -34 8 -34 5 0 7 13 4 29
-4 28 -2 29 43 33 46 3 47 3 43 -24 -3 -16 -1 -28 3 -28 4 0 9 16 11 35 4 38
4 38 -79 28z"/>
<path d="M1790 1890 c0 -5 5 -10 11 -10 5 0 7 5 4 10 -3 6 -8 10 -11 10 -2 0
-4 -4 -4 -10z"/>
<path d="M1850 1865 c0 -9 9 -15 25 -15 14 0 28 0 33 -1 4 0 8 7 10 15 3 12
-5 16 -32 16 -25 0 -36 -4 -36 -15z"/>
<path d="M1773 1834 c0 -16 13 -19 21 -5 3 5 0 11 -7 14 -8 3 -14 -1 -14 -9z"/>
<path d="M1746 1813 c-6 -14 -5 -15 5 -6 7 7 10 15 7 18 -3 3 -9 -2 -12 -12z"/>
<path d="M1807 1816 c-4 -11 -1 -13 10 -9 12 5 14 3 8 -7 -5 -9 -4 -11 4 -6 9
6 9 11 0 22 -14 17 -16 17 -22 0z"/>
<path d="M1880 1812 c0 -4 9 -8 20 -9 11 -1 20 2 20 5 0 4 -9 8 -20 9 -11 1
-20 -2 -20 -5z"/>
<path d="M1975 1800 c-3 -5 -1 -10 4 -10 6 0 11 5 11 10 0 6 -2 10 -4 10 -3 0
-8 -4 -11 -10z"/>
<path d="M1765 1780 c3 -5 8 -10 11 -10 2 0 4 5 4 10 0 6 -5 10 -11 10 -5 0
-7 -4 -4 -10z"/>
<path d="M1863 1763 c-32 -4 -33 -5 -33 -54 l0 -49 38 2 c36 1 36 1 5 5 -31 4
-33 7 -33 44 l0 39 50 0 50 0 0 -35 c0 -19 -4 -35 -8 -35 -5 0 -7 14 -4 30 4
29 3 30 -37 30 -39 0 -41 -2 -41 -30 0 -23 5 -30 19 -30 10 0 32 -3 49 -6 30
-6 30 -6 33 45 l4 51 -30 -2 c-16 0 -45 -3 -62 -5z m37 -53 c0 -5 -5 -10 -11
-10 -5 0 -7 5 -4 10 3 6 8 10 11 10 2 0 4 -4 4 -10z"/>
<path d="M1783 1738 c-4 -7 -8 -17 -9 -23 0 -5 -2 -16 -2 -23 -1 -7 -8 -10
-14 -7 -7 4 -5 0 5 -8 9 -8 17 -20 17 -27 0 -9 -4 -9 -12 -2 -10 8 -13 3 -12
-21 1 -26 5 -32 24 -32 19 0 23 6 24 32 1 17 -2 29 -6 26 -13 -7 -9 12 5 26 7
8 7 11 1 8 -15 -9 -15 46 0 55 8 6 8 8 -1 8 -6 0 -15 -6 -20 -12z m7 -118 c0
-5 -4 -10 -10 -10 -5 0 -10 5 -10 10 0 6 5 10 10 10 6 0 10 -4 10 -10z"/>
<path d="M2051 1734 c0 -11 3 -14 6 -6 3 7 2 16 -1 19 -3 4 -6 -2 -5 -13z"/>
<path d="M1981 1714 c0 -11 3 -14 6 -6 3 7 2 16 -1 19 -3 4 -6 -2 -5 -13z"/>
<path d="M2051 1648 c-2 -46 -31 -55 -196 -63 -82 -4 -152 -9 -154 -11 -7 -7
168 -3 247 5 82 8 117 31 109 72 -4 22 -4 22 -6 -3z"/>
<path d="M1983 1635 c0 -8 4 -12 9 -9 5 3 6 10 3 15 -9 13 -12 11 -12 -6z"/>
<path d="M1890 1636 c0 -2 8 -10 18 -17 15 -13 16 -12 3 4 -13 16 -21 21 -21
13z"/>
<path d="M1953 1625 c0 -8 4 -12 9 -9 5 3 6 10 3 15 -9 13 -12 11 -12 -6z"/>
<path d="M1855 1621 c-3 -5 -2 -12 3 -15 5 -3 9 1 9 9 0 17 -3 19 -12 6z"/>
<path d="M1157 2470 c-10 -17 -42 -45 -70 -64 -63 -40 -180 -155 -266 -260
-138 -169 -347 -545 -549 -991 -99 -216 -132 -311 -137 -390 l-3 -40 109 -65
c60 -36 105 -66 99 -68 -6 -2 -50 21 -98 52 -48 30 -95 58 -105 61 -40 16 -10
-7 95 -70 l111 -68 17 21 c10 11 48 38 86 58 71 39 124 77 211 151 l49 42 19
-75 c18 -73 20 -75 44 -70 90 20 519 17 507 -3 -3 -4 -38 -3 -78 2 -107 13
-481 -7 -453 -24 6 -4 39 -3 75 3 84 11 353 15 408 4 56 -10 56 -31 0 -22 -99
16 -456 1 -477 -19 -11 -12 8 -13 49 -3 67 17 445 17 462 0 11 -11 6 -12 -27
-6 -117 23 -475 0 -475 -29 1 -37 14 -40 138 -22 91 13 155 16 259 11 166 -7
236 -15 244 -28 4 -6 40 -5 95 2 49 6 98 12 109 13 11 2 26 6 33 11 7 4 75 12
150 17 119 8 219 4 356 -14 11 -1 21 7 27 20 7 20 4 22 -59 30 -84 10 -371 11
-437 0 -39 -6 -47 -5 -37 5 15 15 407 19 497 6 60 -9 40 7 -22 17 -55 9 -389
9 -442 0 -47 -8 -58 10 -13 22 40 12 440 8 490 -4 23 -6 42 -7 42 -3 0 17
-101 25 -327 25 -134 0 -223 4 -210 8 25 10 492 3 523 -7 18 -7 23 -1 37 46
29 93 31 111 16 106 -7 -2 -20 -30 -28 -62 l-15 -58 -46 6 c-34 4 -39 3 -20
-4 19 -7 14 -8 -20 -3 -25 3 -93 5 -152 5 -59 -1 -110 3 -113 9 -8 12 -72 12
-80 -1 -3 -5 -23 -10 -43 -9 l-37 1 34 9 c44 13 37 16 -26 11 -43 -3 -53 -7
-53 -22 0 -11 -5 -22 -10 -25 -6 -4 -10 -28 -8 -55 2 -26 6 -46 10 -43 5 2 8
0 8 -5 0 -5 -11 -12 -25 -14 -14 -3 -25 -1 -25 6 0 7 -3 7 -8 -1 -4 -7 -16
-12 -27 -12 -11 1 -30 -2 -42 -6 -15 -5 -23 -3 -23 4 0 7 -4 10 -8 7 -18 -11
-62 -14 -68 -5 -3 5 -10 6 -16 3 -6 -4 -14 0 -19 7 -7 11 -9 11 -9 1 0 -7 -5
-10 -11 -7 -6 4 -26 7 -44 7 -29 0 -33 3 -26 17 4 9 11 30 14 48 6 28 3 33
-23 45 -17 7 -30 16 -30 19 0 4 -64 5 -142 4 -101 -2 -128 -1 -93 5 28 5 69 9
92 9 23 1 44 4 46 9 3 4 -15 5 -40 3 -40 -3 -45 -1 -39 14 4 11 0 22 -11 30
-25 19 -38 7 -17 -16 9 -11 14 -22 11 -25 -9 -10 -174 -33 -233 -34 -47 0 -52
2 -58 25 -4 14 -6 27 -6 30 1 12 -31 65 -39 65 -5 0 -14 17 -20 37 -9 32 -10
33 -6 7 3 -26 -4 -38 -48 -82 -29 -29 -58 -52 -65 -52 -7 0 -12 -5 -12 -10 0
-14 -91 -71 -102 -64 -5 3 -16 -2 -24 -12 -15 -18 -15 -18 -11 1 3 11 8 29 12
40 8 20 8 20 -8 0 -13 -16 -16 -17 -17 -4 0 8 4 19 10 25 5 5 10 24 12 42 1
19 6 36 11 39 4 3 5 18 2 34 -5 21 -3 29 7 29 10 0 9 3 -2 10 -12 7 -13 13 -4
27 6 11 8 27 3 39 -8 23 37 124 56 124 11 1 49 70 42 77 -10 9 -82 -85 -109
-144 -27 -58 -30 -71 -24 -126 5 -48 3 -64 -11 -79 -20 -22 -43 -23 -69 -3
-10 8 -28 15 -39 15 -18 1 -18 2 -3 8 14 6 10 10 -17 18 -43 13 -53 2 -30 -32
13 -20 22 -24 44 -19 19 4 32 1 41 -9 7 -9 17 -13 24 -9 6 3 3 -3 -7 -13 -14
-15 -20 -16 -26 -6 -4 7 -21 14 -37 15 -24 2 -30 -2 -32 -23 -2 -14 -8 -28
-13 -31 -5 -3 5 -15 21 -28 17 -12 36 -19 42 -15 6 4 8 3 4 -4 -3 -6 -2 -13 2
-16 5 -3 9 5 8 17 -1 16 -7 22 -23 22 -29 0 -36 9 -28 35 6 19 12 21 40 17 25
-4 41 0 66 19 18 13 34 24 36 24 4 0 -3 -99 -8 -110 -1 -3 -1 -8 0 -12 0 -4
-10 -10 -23 -14 -15 -4 -23 -11 -19 -19 6 -17 -67 16 -114 51 -17 13 -36 24
-41 24 -5 0 -15 7 -22 15 -10 12 -10 15 2 15 8 0 20 -6 27 -12 11 -11 11 -9 2
9 -14 27 -14 56 -1 48 9 -6 15 42 11 91 -1 12 5 27 14 34 8 7 15 9 15 6 0 -4
9 -2 20 4 11 6 18 15 15 19 -2 5 2 14 10 21 8 7 15 19 15 27 0 8 4 11 10 8 6
-4 7 1 3 11 -4 12 -3 15 5 10 8 -5 10 -1 5 10 -4 12 -3 15 5 10 7 -4 10 -2 6
7 -2 7 5 35 16 62 17 40 19 53 9 82 -20 63 35 107 87 68 10 -8 31 -15 46 -15
15 0 30 -4 33 -10 8 -14 -55 -1 -80 17 -11 7 -29 13 -40 12 -13 0 -9 -4 12
-10 18 -5 35 -14 38 -19 3 -6 16 -10 29 -10 21 0 46 -16 46 -30 0 -3 -18 -25
-40 -49 -22 -23 -59 -80 -82 -127 -40 -81 -41 -86 -30 -132 10 -43 9 -49 -10
-64 -16 -14 -17 -18 -4 -18 26 0 39 36 26 74 -6 19 -8 47 -4 62 13 53 63 143
109 194 34 39 44 57 39 72 -4 12 -2 18 4 14 5 -3 9 -37 9 -76 0 -101 21 -115
30 -20 6 65 -4 123 -20 117 -7 -2 -30 10 -52 27 -21 17 -36 25 -32 19 11 -17
-6 -16 -48 1 -19 8 -35 11 -35 6 0 -4 -9 -6 -20 -3 -20 5 -20 6 1 42 11 19 23
44 25 55 5 29 24 36 45 15 10 -10 34 -21 53 -25 20 -3 33 -10 30 -15 -3 -5 -2
-9 3 -8 29 5 36 -2 15 -17 -12 -8 -22 -20 -22 -26 0 -6 7 -5 17 3 9 8 17 13
17 11 1 -2 14 1 29 7 16 6 34 11 42 11 7 0 16 7 19 16 4 10 13 13 28 9 13 -3
19 -3 13 2 -5 4 -11 17 -11 28 -1 11 -5 37 -8 58 -6 31 -4 37 10 37 12 0 14 3
6 13 -8 10 -6 22 8 45 11 18 20 38 20 45 1 16 60 85 60 69 0 -6 -6 -29 -14
-49 -16 -41 -30 -113 -22 -113 2 0 10 24 16 53 20 82 50 157 65 157 7 0 15 10
18 21 7 25 -30 129 -45 129 -7 0 -7 -4 1 -13 6 -8 8 -16 5 -20 -10 -10 -34 5
-34 22 0 12 -2 13 -8 3 -7 -10 -15 -10 -36 -2 -17 6 -24 14 -20 22 5 7 2 9 -8
5 -25 -9 -29 3 -7 26 10 11 19 27 19 34 0 11 5 11 20 3 10 -6 18 -16 16 -23
-1 -6 -1 -8 2 -4 4 9 48 -17 72 -42 8 -9 17 -27 18 -41 5 -34 6 -34 18 5 6 19
7 32 3 29 -8 -4 -139 94 -139 103 0 2 9 13 20 25 10 12 17 25 14 30 -3 4 2 8
11 8 9 0 13 5 10 10 -3 6 -1 10 4 10 6 0 11 4 11 9 0 5 14 23 30 41 17 18 30
39 30 47 0 10 6 13 16 9 8 -3 12 -2 9 4 -12 19 82 125 110 125 5 0 10 7 10 15
1 8 6 14 13 13 7 -2 12 4 12 12 0 9 6 12 15 8 10 -3 15 0 13 8 -2 8 5 14 17
14 11 1 26 4 33 9 8 5 15 -1 21 -16 13 -31 14 -6 1 26 -10 28 -2 34 18 14 9
-9 12 -9 12 1 0 7 4 10 9 7 4 -3 6 6 3 19 -2 15 0 25 7 25 6 0 10 -3 9 -7 -1
-5 15 -41 35 -80 21 -40 34 -73 31 -73 -4 0 1 -10 12 -22 l19 -21 -27 17 c-15
10 -41 40 -59 67 -34 54 -51 67 -22 18 36 -62 92 -116 143 -138 65 -28 89 -22
32 8 -40 20 -48 32 -93 129 -28 59 -53 119 -56 135 -7 35 -14 34 -36 -3z
m-447 -635 c7 -8 26 -15 42 -15 30 0 78 -38 78 -63 0 -15 -64 -80 -72 -72 -8
9 -21 -14 -66 -113 -37 -82 -42 -100 -36 -141 7 -58 -8 -77 -50 -61 -38 14
-46 12 -16 -5 14 -8 21 -14 15 -15 -13 0 -75 38 -75 46 0 4 8 0 18 -7 15 -13
16 -12 3 4 -8 10 -20 16 -28 13 -36 -14 -59 32 -30 64 10 12 9 12 -5 1 -27
-21 -22 -58 10 -75 15 -8 22 -15 17 -16 -22 0 -55 32 -55 54 0 23 57 86 75 84
13 -2 56 62 50 72 -3 4 4 28 15 51 11 24 20 38 20 31 0 -7 -7 -26 -15 -42 -9
-17 -13 -30 -11 -30 3 0 12 13 20 28 12 23 13 42 4 105 -10 69 -9 79 7 97 21
24 67 26 85 5z m-120 -135 c-8 -5 -10 -10 -4 -10 8 0 4 -17 -10 -44 -11 -24
-26 -41 -33 -39 -7 3 -10 -2 -7 -14 3 -11 -7 -31 -25 -52 -34 -38 -37 -37 -19
6 6 15 12 31 12 35 1 4 7 13 14 19 6 7 12 21 12 31 0 9 8 22 18 27 9 6 13 11
9 11 -16 0 14 40 31 40 15 0 15 -2 2 -10z m-25 -139 c-8 -17 -19 -33 -25 -36
-5 -3 -1 10 11 29 25 43 36 48 14 7z m-227 -353 c-3 -7 2 -19 10 -27 9 -10 11
-16 4 -19 -6 -2 -8 -10 -6 -17 3 -8 -6 -36 -19 -62 -14 -26 -29 -59 -32 -73
-8 -28 -33 -60 -47 -60 -6 0 -18 -10 -29 -22 -17 -20 -16 -15 5 44 14 37 29
75 34 85 6 10 10 20 10 23 1 18 23 60 31 60 6 0 7 7 4 17 -5 12 -3 14 7 8 9
-5 11 -4 6 4 -9 14 2 51 16 51 5 0 8 -6 6 -12z m-58 -272 c0 -2 -7 -7 -16 -10
-8 -3 -12 -2 -9 4 6 10 25 14 25 6z m-83 -51 c-4 -8 -2 -17 3 -20 14 -8 13
-55 -1 -55 -6 0 -9 10 -8 23 2 12 0 28 -4 35 -5 6 -5 17 -2 22 9 15 18 12 12
-5z m-8 -107 c1 -20 -4 -28 -15 -28 -14 0 -15 7 -10 38 3 20 6 44 7 52 2 22
17 -31 18 -62z m76 54 c-3 -3 -11 0 -18 7 -9 10 -8 11 6 5 10 -3 15 -9 12 -12z
m15 -22 c13 -8 13 -10 -2 -10 -9 0 -20 5 -23 10 -8 13 5 13 25 0z m1385 -70
c-3 -5 -10 -10 -16 -10 -5 0 -9 5 -9 10 0 6 7 10 16 10 8 0 12 -4 9 -10z m132
4 c-3 -3 -12 -4 -19 -1 -8 3 -5 6 6 6 11 1 17 -2 13 -5z"/>
<path d="M632 1828 c-7 -7 -12 -17 -12 -22 0 -6 5 -3 11 7 12 21 52 22 69 2 7
-9 27 -14 49 -13 l36 1 -34 4 c-19 3 -40 11 -48 19 -18 17 -55 18 -71 2z"/>
<path d="M687 1770 c3 -11 1 -20 -4 -20 -5 0 -15 -11 -21 -25 -6 -14 -7 -25
-2 -25 5 0 7 -10 5 -21 -4 -20 -3 -20 14 -5 10 9 22 13 26 9 5 -5 3 1 -5 11
-10 13 -10 17 -2 12 6 -4 12 -2 12 3 0 21 2 26 12 39 6 7 17 11 25 8 30 -12
10 5 -23 19 -45 19 -43 19 -37 -5z m18 -40 c3 -6 -1 -7 -9 -4 -10 4 -16 1 -16
-7 0 -7 -3 -10 -6 -6 -7 7 4 27 16 27 5 0 12 -4 15 -10z"/>
<path d="M621 1764 c0 -11 3 -14 6 -6 3 7 2 16 -1 19 -3 4 -6 -2 -5 -13z"/>
<path d="M807 1756 c-3 -8 -23 -26 -44 -39 -32 -20 -46 -41 -86 -132 -41 -92
-47 -114 -42 -147 5 -25 2 -44 -5 -53 -8 -10 -9 -15 -2 -15 16 0 24 35 17 72
-10 52 70 225 120 259 37 25 61 56 52 65 -2 3 -7 -2 -10 -10z"/>
<path d="M631 1724 c0 -11 3 -14 6 -6 3 7 2 16 -1 19 -3 4 -6 -2 -5 -13z"/>
<path d="M651 1635 c-1 -11 -18 -55 -39 -97 -21 -43 -35 -78 -30 -78 14 0 79
150 75 172 -4 20 -4 20 -6 3z"/>
<path d="M516 1492 c-3 -5 1 -9 9 -9 8 0 12 4 9 9 -3 4 -7 8 -9 8 -2 0 -6 -4
-9 -8z"/>
<path d="M583 1440 c-21 -16 -21 -19 -6 -31 14 -12 16 -12 8 0 -5 9 -2 19 10
27 10 8 17 16 14 18 -2 2 -14 -4 -26 -14z"/>
<path d="M545 1640 c4 -6 11 -8 16 -5 14 9 11 15 -7 15 -8 0 -12 -5 -9 -10z"/>
<path d="M1750 2349 c0 -16 47 -37 61 -27 11 8 10 8 -5 4 -16 -6 -17 -4 -6 9
7 8 9 15 4 16 -5 0 -19 2 -31 3 -13 2 -23 -1 -23 -5z"/>
<path d="M1047 2294 c-20 -19 -35 -40 -32 -45 3 -5 0 -7 -7 -4 -7 3 -19 -4
-26 -15 -8 -14 -9 -20 -1 -20 6 0 9 -9 6 -20 -3 -11 -1 -18 4 -14 5 3 9 10 9
16 0 6 19 34 43 62 24 28 47 57 51 64 14 23 -9 12 -47 -24z"/>
<path d="M1130 2320 c-13 -8 -12 -10 3 -10 9 0 17 5 17 10 0 12 -1 12 -20 0z"/>
<path d="M1200 2326 c0 -2 7 -9 15 -16 13 -11 14 -10 9 4 -5 14 -24 23 -24 12z"/>
<path d="M1660 2290 c20 -13 40 -13 40 0 0 6 -12 10 -27 10 -22 0 -25 -2 -13
-10z"/>
<path d="M1810 2294 c0 -10 33 -33 48 -34 7 0 26 -15 43 -32 20 -22 27 -26 20
-12 -6 12 -7 25 -3 29 4 5 2 5 -5 1 -6 -3 -15 0 -20 7 -17 29 -83 61 -83 41z"/>
<path d="M1125 2253 c17 -10 39 -18 49 -20 16 -3 14 0 -7 17 -14 11 -36 20
-49 20 -22 -1 -21 -2 7 -17z"/>
<path d="M1051 2217 c-13 -21 -12 -21 5 -5 10 10 16 20 13 22 -3 3 -11 -5 -18
-17z"/>
<path d="M1201 2226 c-10 -12 -8 -13 8 -9 12 3 21 9 21 14 0 14 -16 11 -29 -5z"/>
<path d="M1646 2228 c3 -5 10 -6 15 -3 13 9 11 12 -6 12 -8 0 -12 -4 -9 -9z"/>
<path d="M925 2220 c-3 -5 -1 -10 4 -10 6 0 11 5 11 10 0 6 -2 10 -4 10 -3 0
-8 -4 -11 -10z"/>
<path d="M1846 2208 c29 -35 64 -69 64 -63 0 11 -65 85 -74 85 -5 0 -1 -10 10
-22z"/>
<path d="M1695 2196 c21 -15 49 -10 39 6 -4 6 -9 6 -14 -2 -5 -9 -9 -9 -14 -1
-4 6 -12 11 -19 11 -6 0 -2 -6 8 -14z"/>
<path d="M1513 2188 c-13 -6 -23 -15 -23 -20 0 -8 17 -1 50 22 20 13 1 12 -27
-2z"/>
<path d="M1650 2179 c0 -5 5 -7 10 -4 6 3 10 8 10 11 0 2 -4 4 -10 4 -5 0 -10
-5 -10 -11z"/>
<path d="M1390 2169 c0 -5 8 -5 18 -2 15 6 16 5 2 -13 -14 -17 -13 -18 1 -6 9
7 27 11 39 10 13 -2 24 2 26 7 2 6 -16 11 -41 11 -25 1 -45 -2 -45 -7z"/>
<path d="M983 2148 c-19 -24 -24 -38 -15 -38 5 0 14 11 20 25 13 27 10 32 -5
13z"/>
<path d="M873 2124 c-3 -9 -20 -30 -37 -44 -26 -24 -27 -27 -10 -26 11 0 40
18 65 39 24 22 38 36 31 32 -7 -4 -19 -1 -27 5 -12 10 -16 9 -22 -6z m27 -8
c0 -3 -4 -8 -10 -11 -5 -3 -10 -1 -10 4 0 6 5 11 10 11 6 0 10 -2 10 -4z"/>
<path d="M1386 2127 c3 -10 9 -15 12 -12 3 3 0 11 -7 18 -10 9 -11 8 -5 -6z"/>
<path d="M1410 2124 c0 -1 6 -7 14 -13 10 -8 16 -8 24 1 8 10 4 13 -14 13 -13
0 -24 -1 -24 -1z"/>
<path d="M2065 2100 c-3 -6 1 -7 9 -4 18 7 21 14 7 14 -6 0 -13 -4 -16 -10z"/>
<path d="M945 2069 c-4 -6 -5 -12 -2 -15 2 -3 7 2 10 11 7 17 1 20 -8 4z"/>
<path d="M986 2065 c-9 -26 -7 -32 5 -12 6 10 9 21 6 23 -2 3 -7 -2 -11 -11z"/>
<path d="M792 2025 c-17 -19 -1 -19 24 0 14 11 15 14 4 14 -8 0 -21 -6 -28
-14z"/>
<path d="M1960 2029 c0 -5 5 -7 10 -4 6 3 10 8 10 11 0 2 -4 4 -10 4 -5 0 -10
-5 -10 -11z"/>
<path d="M903 1978 c-5 -7 -15 -26 -22 -42 -11 -26 -10 -28 3 -17 8 7 19 25
25 42 11 31 9 36 -6 17z"/>
<path d="M2028 1983 c6 -2 9 -10 6 -15 -4 -7 -2 -8 5 -4 13 9 5 26 -12 25 -9
0 -8 -2 1 -6z"/>
<path d="M780 1970 c0 -5 5 -10 10 -10 6 0 10 5 10 10 0 6 -4 10 -10 10 -5 0
-10 -4 -10 -10z"/>
<path d="M745 1880 c3 -5 8 -10 11 -10 2 0 4 5 4 10 0 6 -5 10 -11 10 -5 0 -7
-4 -4 -10z"/>
<path d="M1410 1874 c-11 -12 -10 -18 3 -31 17 -17 47 -11 47 9 0 10 -3 9 -9
-1 -10 -15 -41 -8 -41 9 0 6 10 15 23 20 15 6 17 9 6 9 -9 1 -22 -6 -29 -15z"/>
<path d="M2117 1852 c-18 -20 -22 -48 -8 -56 4 -3 6 6 3 21 -4 19 -2 24 8 18
8 -5 11 -4 6 3 -3 6 2 15 11 21 10 6 13 11 7 11 -6 0 -18 -8 -27 -18z"/>
<path d="M1496 1767 c3 -10 9 -15 12 -12 3 3 0 11 -7 18 -10 9 -11 8 -5 -6z"/>
<path d="M2213 1732 c30 -33 79 -153 86 -210 8 -66 16 -82 39 -82 13 0 13 3
-5 15 -15 10 -21 26 -21 53 -1 63 -78 242 -104 242 -6 0 -4 -8 5 -18z"/>
<path d="M2276 1728 c4 -7 16 -25 26 -40 10 -14 32 -52 48 -85 17 -32 27 -47
24 -33 -4 14 -8 33 -8 42 0 9 -4 14 -8 12 -4 -3 -8 0 -8 5 0 12 -69 111 -77
111 -2 0 -1 -6 3 -12z"/>
<path d="M2203 1600 c0 -30 2 -43 4 -27 2 15 2 39 0 55 -2 15 -4 2 -4 -28z"/>
<path d="M1365 1613 c6 -4 12 -21 14 -38 5 -45 13 -46 9 -1 -2 25 -9 41 -18
43 -9 3 -11 1 -5 -4z"/>
<path d="M1422 1578 c-16 -16 -15 -33 4 -48 12 -11 18 -10 32 5 16 18 16 18
-1 5 -26 -19 -47 2 -29 30 14 23 12 26 -6 8z"/>
<path d="M2397 1579 c7 -7 15 -10 18 -7 3 3 -2 9 -12 12 -14 6 -15 5 -6 -5z"/>
<path d="M2446 1557 c3 -10 9 -15 12 -12 3 3 0 11 -7 18 -10 9 -11 8 -5 -6z"/>
<path d="M2399 1538 c-14 -26 -36 -49 -44 -48 -4 1 -9 -1 -12 -3 -14 -14 29 1
45 16 10 9 25 17 33 17 12 0 12 2 0 9 -7 5 -10 14 -7 20 4 6 5 11 2 11 -3 0
-11 -10 -17 -22z"/>
<path d="M2206 1525 c4 -8 8 -15 10 -15 2 0 4 7 4 15 0 8 -4 15 -10 15 -5 0
-7 -7 -4 -15z"/>
<path d="M2345 1529 c-4 -6 -5 -12 -2 -15 2 -3 7 2 10 11 7 17 1 20 -8 4z"/>
<path d="M1376 1486 c4 -16 1 -33 -7 -43 -8 -9 -9 -14 -2 -10 6 4 14 1 16 -5
3 -7 6 6 6 29 1 23 -4 45 -9 48 -7 4 -9 -2 -4 -19z"/>
<path d="M2376 1462 l-19 -27 29 25 c16 14 31 26 33 28 2 1 -2 2 -10 2 -8 0
-23 -13 -33 -28z"/>
<path d="M1770 1446 c0 -2 7 -7 16 -10 8 -3 12 -2 9 4 -6 10 -25 14 -25 6z"/>
<path d="M2260 1445 c0 -5 5 -17 10 -25 5 -8 10 -10 10 -5 0 6 -5 17 -10 25
-5 8 -10 11 -10 5z"/>
<path d="M1871 1413 c10 -2 19 -13 22 -24 3 -10 11 -19 19 -19 8 0 9 3 2 8 -6
4 -13 15 -17 25 -3 9 -14 16 -24 16 -16 -1 -16 -2 -2 -6z"/>
<path d="M1017 1398 c-6 -3 -15 -4 -21 -1 -5 3 -6 1 -2 -5 5 -9 13 -9 26 -2
11 6 20 6 22 1 2 -5 12 -3 22 5 19 13 19 14 -8 12 -15 -1 -32 -6 -39 -10z"/>
<path d="M1857 1380 c8 -17 18 -30 23 -30 14 0 -2 40 -20 50 -17 9 -17 8 -3
-20z"/>
<path d="M1380 1384 c0 -9 -5 -12 -12 -8 -7 5 -8 3 -2 -7 4 -8 7 -24 6 -36 -2
-11 2 -24 7 -28 7 -4 11 11 11 44 0 28 -2 51 -5 51 -3 0 -5 -7 -5 -16z"/>
<path d="M2270 1389 c0 -5 5 -7 10 -4 6 3 10 8 10 11 0 2 -4 4 -10 4 -5 0 -10
-5 -10 -11z"/>
<path d="M415 1380 c3 -5 8 -10 11 -10 2 0 4 5 4 10 0 6 -5 10 -11 10 -5 0 -7
-4 -4 -10z"/>
<path d="M1006 1353 c-5 -22 -20 -155 -18 -165 1 -5 -8 -9 -20 -9 -17 -1 -19
-2 -5 -6 12 -3 17 -15 19 -41 1 -36 1 -36 7 7 7 49 27 66 34 29 3 -17 5 -15 6
9 1 26 -2 31 -15 26 -13 -5 -14 3 -9 58 3 35 8 74 11 87 5 26 -2 30 -10 5z"/>
<path d="M1041 1345 c-1 -17 -6 -36 -12 -42 -7 -7 -7 -13 0 -17 11 -7 26 55
18 76 -3 7 -6 -1 -6 -17z"/>
<path d="M1706 1353 c-6 -14 -5 -15 5 -6 7 7 10 15 7 18 -3 3 -9 -2 -12 -12z"/>
<path d="M1934 1344 c-1 -13 2 -24 7 -24 11 0 12 37 2 43 -5 3 -9 -6 -9 -19z"/>
<path d="M2280 1355 c0 -8 4 -15 10 -15 5 0 7 7 4 15 -4 8 -8 15 -10 15 -2 0
-4 -7 -4 -15z"/>
<path d="M1901 1344 c0 -11 3 -14 6 -6 3 7 2 16 -1 19 -3 4 -6 -2 -5 -13z"/>
<path d="M2350 1356 c0 -2 8 -10 18 -17 15 -13 16 -12 3 4 -13 16 -21 21 -21
13z"/>
<path d="M470 1341 c0 -6 5 -13 10 -16 6 -3 10 1 10 9 0 9 -4 16 -10 16 -5 0
-10 -4 -10 -9z"/>
<path d="M959 1333 c-13 -16 -12 -17 4 -4 9 7 17 15 17 17 0 8 -8 3 -21 -13z"/>
<path d="M2316 1294 c-3 -30 -5 -58 -2 -62 2 -4 7 -70 11 -147 7 -133 14 -183
16 -119 2 44 1 61 -6 164 -4 52 -7 123 -6 158 1 34 -1 62 -3 62 -2 0 -6 -25
-10 -56z"/>
<path d="M1860 1330 c0 -5 9 -14 20 -20 16 -8 18 -8 14 4 -6 17 -34 30 -34 16z"/>
<path d="M2280 1313 c0 -10 5 -25 10 -33 8 -11 10 -7 8 18 -2 33 -18 46 -18
15z"/>
<path d="M963 1305 c-9 -24 1 -27 15 -5 8 13 8 20 2 20 -6 0 -13 -7 -17 -15z"/>
<path d="M1910 1294 c0 -14 4 -23 9 -20 5 3 7 15 4 26 -7 28 -13 25 -13 -6z"/>
<path d="M2581 1304 c0 -11 3 -14 6 -6 3 7 2 16 -1 19 -3 4 -6 -2 -5 -13z"/>
<path d="M685 1298 c-13 -37 -25 -111 -19 -120 4 -6 0 -14 -7 -19 -8 -5 -9 -9
-3 -9 7 0 9 -10 6 -25 -2 -15 -9 -22 -16 -18 -6 4 -4 -1 4 -12 14 -17 15 -16
22 21 4 21 5 53 2 69 -4 20 -2 26 4 16 7 -9 11 -5 14 17 3 19 1 29 -6 25 -6
-4 -7 1 -2 13 11 27 16 54 10 54 -2 0 -7 -6 -9 -12z"/>
<path d="M2513 1297 c0 -8 6 -14 14 -14 9 0 10 4 2 14 -6 7 -12 13 -14 13 -1
0 -2 -6 -2 -13z"/>
<path d="M1872 1285 c2 -11 14 -25 28 -32 14 -7 27 -23 30 -35 6 -23 50 -40
50 -20 0 6 -9 8 -20 5 -16 -4 -20 0 -20 21 0 16 -7 29 -17 33 -10 4 -26 16
-36 28 -17 20 -18 20 -15 0z"/>
<path d="M1385 1028 c0 -146 3 -264 8 -261 9 5 7 372 -2 463 -4 36 -7 -55 -6
-202z"/>
<path d="M535 1270 c3 -5 12 -7 20 -3 21 7 19 13 -6 13 -11 0 -18 -4 -14 -10z"/>
<path d="M2453 1265 c0 -7 6 -11 14 -8 7 3 13 6 13 8 0 2 -6 5 -13 8 -8 3 -14
-1 -14 -8z"/>
<path d="M1022 1250 c-8 -13 -8 -20 -2 -20 6 0 13 7 17 15 9 24 -1 27 -15 5z"/>
<path d="M1416 1258 c-9 -27 -2 -44 18 -46 22 -1 36 14 35 38 0 8 -4 5 -9 -7
-5 -13 -14 -23 -20 -23 -17 0 -24 31 -9 41 10 6 11 9 1 9 -7 0 -14 -6 -16 -12z"/>
<path d="M2530 1236 c12 -56 70 -154 93 -160 l22 -5 -22 17 c-22 18 -83 131
-83 156 0 8 -4 17 -9 20 -5 4 -6 -8 -1 -28z"/>
<path d="M1960 1246 c0 -8 4 -17 9 -20 5 -4 7 3 4 14 -6 23 -13 26 -13 6z"/>
<path d="M961 1236 c-7 -8 -11 -23 -8 -33 4 -15 5 -14 6 4 0 12 7 23 14 26 6
2 9 7 6 11 -3 4 -12 0 -18 -8z"/>
<path d="M2291 1234 c0 -11 3 -14 6 -6 3 7 2 16 -1 19 -3 4 -6 -2 -5 -13z"/>
<path d="M2431 1234 c7 -8 6 -13 -3 -17 -8 -2 0 -12 19 -23 41 -24 87 -115
103 -202 6 -35 14 -71 17 -80 4 -13 2 -13 -11 3 -16 18 -17 18 -12 2 3 -10 6
-28 6 -40 0 -18 2 -19 10 -7 9 13 12 12 26 -5 8 -11 20 -19 25 -17 5 1 25 -4
44 -12 19 -8 35 -11 35 -5 0 5 -6 9 -12 9 -16 1 28 39 71 63 18 9 31 22 29 28
-2 6 -8 9 -13 7 -6 -2 -9 -6 -8 -9 1 -3 -13 -12 -32 -21 -25 -11 -32 -11 -28
-2 2 7 14 15 26 17 l22 4 -22 2 c-22 1 -49 -30 -36 -42 3 -4 -6 -11 -20 -18
-29 -13 -77 -5 -77 13 0 9 3 9 12 0 15 -15 55 -16 64 0 4 7 3 8 -5 4 -7 -5
-23 -5 -37 -2 -18 5 -24 13 -23 34 0 15 4 36 8 46 5 14 -8 52 -48 131 -51 102
-60 114 -98 132 -23 11 -38 14 -32 7z m61 -33 c4 -3 30 -53 58 -110 50 -102
51 -106 41 -155 l-10 -51 5 52 c4 47 0 61 -47 156 -38 76 -59 107 -78 115
l-26 11 25 -6 c14 -3 28 -8 32 -12z"/>
<path d="M1891 1200 c7 -19 18 -30 30 -30 10 0 19 -3 19 -7 0 -5 4 -25 9 -45
8 -34 7 -37 -9 -28 -25 14 -30 13 -24 -5 4 -8 17 -15 31 -15 13 0 22 -4 19 -9
-3 -4 1 -28 9 -52 l14 -44 -5 45 c-3 25 -9 56 -14 70 -8 21 -15 57 -19 93 -1
4 -10 7 -21 7 -13 0 -22 9 -26 25 -3 14 -10 25 -15 25 -4 0 -3 -13 2 -30z"/>
<path d="M416 1138 c-16 -27 -34 -73 -42 -101 -15 -58 -3 -52 16 8 7 22 24 62
37 88 33 65 25 69 -11 5z"/>
<path d="M2393 1155 c-3 -9 -3 -19 1 -22 3 -4 6 1 6 10 0 8 6 18 13 20 9 4 9
6 -1 6 -7 1 -15 -6 -19 -14z"/>
<path d="M903 1145 c0 -8 4 -12 9 -9 5 3 6 10 3 15 -9 13 -12 11 -12 -6z"/>
<path d="M940 1132 c0 -15 4 -20 16 -15 9 3 12 9 7 12 -4 3 -11 10 -15 15 -5
5 -8 0 -8 -12z"/>
<path d="M1900 1140 c0 -12 28 -25 36 -17 3 3 -4 10 -15 17 -15 7 -21 7 -21 0z"/>
<path d="M1991 1133 c0 -6 -4 -20 -7 -30 -5 -14 -4 -15 5 -7 7 7 11 20 8 30
-3 11 -5 14 -6 7z"/>
<path d="M1010 1097 c0 -13 -5 -28 -10 -33 -7 -7 -6 -11 5 -11 10 0 15 10 15
34 0 18 -2 33 -5 33 -3 0 -5 -10 -5 -23z"/>
<path d="M940 1086 c0 -9 5 -16 10 -16 6 0 10 4 10 9 0 6 -4 13 -10 16 -5 3
-10 -1 -10 -9z"/>
<path d="M969 1078 c0 -7 -2 -24 -3 -38 -1 -14 -3 -54 -4 -90 -2 -49 -5 -61
-13 -50 -9 13 -10 13 -6 0 2 -8 17 -16 33 -18 25 -2 27 -1 10 9 -16 10 -18 20
-11 105 4 52 4 94 1 94 -3 0 -6 -6 -7 -12z"/>
<path d="M643 1065 c0 -8 4 -15 9 -15 4 0 8 4 8 9 0 6 -4 12 -8 15 -5 3 -9 -1
-9 -9z"/>
<path d="M2624 1029 c-1 -24 2 -29 15 -24 29 11 36 10 36 -5 0 -8 -7 -14 -16
-14 -13 1 -14 -3 -5 -22 12 -25 23 -29 44 -16 10 7 10 14 -3 38 -8 16 -15 35
-15 42 0 6 -4 12 -10 12 -5 0 -10 -4 -10 -10 0 -5 -5 -10 -11 -10 -5 0 -8 4
-5 9 3 5 0 13 -7 19 -9 8 -12 3 -13 -19z m66 -63 c0 -3 -4 -8 -10 -11 -5 -3
-10 -1 -10 4 0 6 5 11 10 11 6 0 10 -2 10 -4z"/>
<path d="M930 1030 c0 -13 5 -18 15 -14 12 5 13 10 4 20 -15 19 -19 18 -19 -6z"/>
<path d="M1920 1040 c0 -5 9 -14 20 -20 16 -8 18 -8 14 4 -6 17 -34 30 -34 16z"/>
<path d="M658 1013 c5 -21 7 -23 10 -9 2 10 0 22 -6 28 -6 6 -7 0 -4 -19z"/>
<path d="M550 1015 c0 -6 5 -16 12 -23 9 -9 9 -12 0 -12 -7 0 -12 -9 -12 -20
0 -11 5 -20 11 -20 5 0 7 5 4 10 -4 6 -2 17 4 24 8 9 7 18 -4 32 -8 10 -15 14
-15 9z"/>
<path d="M990 1000 c0 -5 5 -10 10 -10 6 0 10 5 10 10 0 6 -4 10 -10 10 -5 0
-10 -4 -10 -10z"/>
<path d="M1936 986 c6 -17 34 -30 34 -16 0 5 -9 14 -20 20 -16 8 -18 8 -14 -4z"/>
<path d="M1419 973 c-13 -16 -12 -17 4 -4 16 13 21 21 13 21 -2 0 -10 -8 -17
-17z"/>
<path d="M2180 976 c0 -2 8 -10 18 -17 15 -13 16 -12 3 4 -13 16 -21 21 -21
13z"/>
<path d="M2501 964 c0 -11 3 -14 6 -6 3 7 2 16 -1 19 -3 4 -6 -2 -5 -13z"/>
<path d="M344 955 c-4 -8 -10 -13 -15 -10 -4 3 -13 -11 -18 -32 -9 -32 -8 -40
6 -50 19 -15 18 -16 27 21 6 23 4 27 -8 23 -10 -4 -16 -1 -16 9 0 11 4 12 19
4 13 -7 22 -7 26 0 3 5 2 10 -3 10 -6 0 -8 9 -5 20 6 23 -5 27 -13 5z m-14
-75 c0 -5 -4 -10 -10 -10 -5 0 -10 5 -10 10 0 6 5 10 10 10 6 0 10 -4 10 -10z"/>
<path d="M1466 954 c-4 -10 -12 -14 -24 -9 -14 5 -15 4 -4 -6 10 -11 15 -10
29 4 9 9 14 19 11 22 -3 3 -8 -2 -12 -11z"/>
<path d="M2526 957 c3 -10 9 -15 12 -12 3 3 0 11 -7 18 -10 9 -11 8 -5 -6z"/>
<path d="M855 949 c-4 -6 -5 -12 -2 -15 2 -3 7 2 10 11 7 17 1 20 -8 4z"/>
<path d="M1002 930 c0 -19 2 -27 5 -17 2 9 2 25 0 35 -3 9 -5 1 -5 -18z"/>
<path d="M1991 943 c-1 -16 -6 -20 -21 -16 -14 4 -20 0 -20 -12 0 -13 6 -16
23 -11 12 3 38 6 57 7 19 0 29 3 23 6 -7 2 -13 12 -13 21 -1 15 -2 15 -11 0
-14 -24 -27 -22 -32 5 -4 21 -4 22 -6 0z"/>
<path d="M2625 941 c-3 -5 0 -13 6 -17 7 -4 9 -3 5 4 -3 5 0 13 6 15 9 4 10 6
1 6 -6 1 -14 -3 -18 -8z"/>
<path d="M1317 899 c7 -7 15 -10 18 -7 3 3 -2 9 -12 12 -14 6 -15 5 -6 -5z"/>
<path d="M900 885 c-8 -45 -8 -47 2 -37 5 5 8 18 5 28 -3 11 -6 15 -7 9z"/>
<path d="M1114 878 c-5 -7 -3 -8 6 -3 9 6 12 4 8 -7 -4 -8 0 -15 7 -15 10 0
11 5 4 19 -11 21 -15 22 -25 6z"/>
<path d="M1010 876 c0 -2 9 -6 20 -9 11 -3 18 -1 14 4 -5 9 -34 13 -34 5z"/>
<path d="M2054 854 c-11 -8 -33 -15 -48 -16 -15 -1 -34 -11 -43 -21 -15 -16
-11 -16 43 4 59 22 81 35 73 43 -2 2 -13 -2 -25 -10z"/>
<path d="M1060 851 c0 -5 5 -13 10 -16 6 -3 10 -2 10 4 0 5 -4 13 -10 16 -5 3
-10 2 -10 -4z"/>
<path d="M2536 821 c9 -17 17 -31 19 -31 8 0 -9 40 -21 51 -10 8 -10 3 2 -20z"/>
<path d="M950 834 c0 -5 9 -15 20 -21 15 -10 21 -10 26 0 4 6 3 9 -1 4 -5 -4
-17 0 -27 10 -10 9 -18 12 -18 7z"/>
<path d="M1746 827 c3 -10 9 -15 12 -12 3 3 0 11 -7 18 -10 9 -11 8 -5 -6z"/>
<path d="M2580 833 c0 -18 57 -80 80 -86 11 -3 20 -1 20 4 0 5 -6 9 -13 9 -8
0 -24 12 -38 27 -21 23 -22 25 -4 18 11 -4 27 -9 36 -12 9 -3 22 -16 28 -29
12 -27 26 -31 34 -9 11 26 -70 74 -105 63 -7 -3 -18 2 -25 11 -8 10 -12 11
-13 4z"/>
<path d="M2400 794 c0 -8 5 -12 10 -9 6 3 10 10 10 16 0 5 -4 9 -10 9 -5 0
-10 -7 -10 -16z"/>
<path d="M2005 760 c17 -4 44 -8 60 -8 25 0 24 2 -10 9 -51 10 -92 10 -50 -1z"/>
<path d="M1160 750 c0 -6 7 -10 15 -10 8 0 15 2 15 4 0 2 -7 6 -15 10 -8 3
-15 1 -15 -4z"/>
<path d="M1516 752 c-3 -5 1 -9 9 -9 8 0 15 4 15 9 0 4 -4 8 -9 8 -6 0 -12 -4
-15 -8z"/>
<path d="M1568 753 c12 -2 30 -2 40 0 9 3 -1 5 -23 4 -22 0 -30 -2 -17 -4z"/>
<path d="M1868 753 c12 -2 32 -2 45 0 12 2 2 4 -23 4 -25 0 -35 -2 -22 -4z"/>
<path d="M351 723 c-12 -14 -19 -28 -16 -31 6 -6 55 38 55 50 0 16 -19 7 -39
-19z"/>
<path d="M1446 739 c2 -4 -3 -10 -12 -13 -8 -3 -12 -11 -8 -17 5 -8 10 -6 16
5 6 10 17 15 27 11 11 -3 18 0 18 10 0 9 -9 14 -23 13 -12 -1 -21 -5 -18 -9z"/>
<path d="M288 733 c7 -3 16 -2 19 1 4 3 -2 6 -13 5 -11 0 -14 -3 -6 -6z"/>
<path d="M1258 733 c7 -3 16 -2 19 1 4 3 -2 6 -13 5 -11 0 -14 -3 -6 -6z"/>
<path d="M1300 729 c0 -5 5 -7 10 -4 6 3 10 8 10 11 0 2 -4 4 -10 4 -5 0 -10
-5 -10 -11z"/>
<path d="M1460 690 c-9 -6 -10 -10 -3 -10 6 0 15 5 18 10 8 12 4 12 -15 0z"/>
<path d="M110 673 c1 -9 44 -38 140 -95 36 -21 58 -38 50 -38 -16 0 -117 58
-158 91 -27 21 -42 17 -42 -11 0 -12 16 -30 43 -47 23 -14 58 -37 78 -50 43
-28 59 -29 93 -2 33 26 33 35 -1 42 -16 3 -65 31 -111 61 -85 58 -92 61 -92
49z"/>
<path d="M1434 625 c-3 -8 -4 -20 -2 -27 3 -7 7 -1 10 15 6 29 1 36 -8 12z"/>
</g>
</svg>
