<?xml version="1.0" standalone="no"?>
<!DOCTYPE svg PUBLIC "-//W3C//DTD SVG 20010904//EN"
 "http://www.w3.org/TR/2001/REC-SVG-20010904/DTD/svg10.dtd">
<svg version="1.0" xmlns="http://www.w3.org/2000/svg"
 width="300.000000pt" height="196.000000pt" viewBox="0 0 300.000000 196.000000"
 preserveAspectRatio="xMidYMid meet">
<metadata>
Created by potrace 1.10, written by Peter Selinger 2001-2011
</metadata>
<g transform="translate(0.000000,196.000000) scale(0.100000,-0.100000)"
fill="#000000" stroke="none">
<path d="M902 1687 c-21 -22 -22 -32 -22 -210 0 -156 3 -192 16 -212 9 -14 23
-25 30 -25 12 0 14 -60 14 -362 l0 -362 133 -133 133 -133 300 0 300 0 132
133 132 134 0 361 c0 309 2 362 14 362 38 0 44 36 46 236 1 182 -1 195 -20
214 -20 20 -30 20 -603 20 l-584 0 -21 -23z m1198 -214 l0 -203 -30 0 -30 0 0
-372 0 -373 -122 -122 -123 -123 -290 0 -290 0 -122 122 -123 123 0 372 0 373
-30 0 -30 0 0 203 0 202 595 0 595 0 0 -202z"/>
<path d="M970 1472 l0 -149 28 5 27 4 -3 -96 -3 -96 167 0 166 0 -4 96 -4 96
28 -4 28 -5 0 149 0 148 -215 0 -215 0 0 -148z m390 5 c0 -101 -2 -116 -20
-132 -17 -15 -20 -31 -20 -97 l0 -78 -135 0 -135 0 0 79 c0 73 -2 81 -25 99
-24 19 -25 24 -25 131 l0 111 180 0 180 0 0 -113z"/>
<path d="M1610 1475 l0 -145 30 0 30 0 0 -95 0 -95 160 0 160 0 0 96 0 96 25
-4 25 -5 0 148 0 149 -215 0 -215 0 0 -145z m400 4 c0 -107 -1 -112 -25 -131
-23 -18 -25 -26 -25 -99 l0 -79 -129 0 -128 0 -6 34 c-3 19 -3 52 0 73 4 34 1
44 -23 69 -29 29 -29 30 -26 137 l3 107 180 0 179 0 0 -111z"/>
<path d="M1483 1323 c-18 -12 -20 -19 -13 -44 8 -28 -2 -40 -15 -19 -3 6 -15
10 -26 10 -28 0 -25 -44 4 -67 13 -10 22 -24 19 -32 -3 -10 2 -13 21 -9 18 4
27 0 30 -11 4 -15 5 -15 6 0 1 12 8 15 26 11 18 -3 25 0 25 12 0 8 11 23 26
32 16 11 24 24 22 38 -4 29 -40 32 -64 5 l-19 -22 28 7 c33 8 35 -3 4 -25 -43
-31 -61 -31 -97 2 -35 30 -35 30 -8 25 21 -5 30 -1 38 14 6 11 10 28 8 37 -2
9 3 18 10 20 8 3 12 -6 12 -28 0 -35 13 -31 24 7 5 16 0 25 -16 36 -20 13 -26
13 -45 1z"/>
<path d="M1035 1080 c-8 -9 -15 -31 -15 -48 0 -25 8 -37 45 -63 48 -34 58 -59
25 -59 -11 0 -20 5 -20 10 0 6 -11 10 -25 10 -18 0 -25 -5 -25 -18 0 -29 33
-52 72 -52 43 0 61 19 62 66 1 31 -4 39 -41 62 -45 29 -58 62 -23 62 11 0 20
-7 20 -15 0 -9 9 -15 24 -15 20 0 24 5 22 24 -1 14 -8 31 -14 39 -17 20 -88
18 -107 -3z"/>
<path d="M1190 978 l0 -118 26 0 c24 0 26 3 22 40 -3 39 -3 40 28 40 42 0 56
19 58 80 2 63 -10 74 -80 75 l-54 1 0 -118z m90 36 c0 -31 -3 -35 -22 -32 -16
2 -21 10 -22 36 -1 27 3 32 22 32 19 0 22 -5 22 -36z"/>
<path d="M1375 1080 c-19 -21 -21 -190 -3 -208 7 -7 33 -12 58 -12 25 0 51 5
58 12 8 8 12 46 12 104 0 73 -3 94 -17 105 -23 20 -90 19 -108 -1z m81 -100
c-1 -68 -2 -70 -26 -70 -24 0 -25 2 -25 70 0 68 1 70 26 70 25 0 25 -1 25 -70z"/>
<path d="M1540 978 c0 -111 1 -118 20 -118 17 0 20 7 20 40 0 22 5 40 11 40 6
0 18 -18 26 -40 13 -33 21 -40 44 -40 l28 0 -21 36 c-17 29 -19 40 -10 55 7
10 12 43 12 73 0 62 -6 67 -82 71 l-48 2 0 -119z m90 37 c0 -31 -3 -35 -25
-35 -22 0 -25 4 -25 35 0 31 3 35 25 35 22 0 25 -4 25 -35z"/>
<path d="M1700 1073 c0 -16 6 -23 20 -23 19 0 20 -7 20 -95 0 -95 0 -95 25
-95 25 0 25 0 25 95 0 88 1 95 20 95 14 0 20 7 20 23 0 21 -4 22 -65 22 -61 0
-65 -1 -65 -22z"/>
<path d="M1876 1088 c-11 -6 -16 -23 -16 -53 0 -39 4 -46 35 -65 19 -12 40
-30 45 -41 9 -16 7 -19 -15 -19 -14 0 -25 5 -25 10 0 6 -11 10 -24 10 -20 0
-23 -4 -19 -22 9 -37 23 -48 62 -48 50 1 71 19 71 63 0 31 -6 40 -45 67 -47
33 -59 60 -25 60 11 0 20 -7 20 -15 0 -9 9 -15 25 -15 20 0 25 5 25 24 0 13
-7 30 -16 37 -19 16 -75 20 -98 7z"/>
<path d="M1020 687 l0 -132 108 -108 107 -107 270 0 270 0 108 108 107 107 0
133 0 132 -160 0 -160 0 0 -95 0 -95 -163 0 -163 0 4 95 4 95 -166 0 -166 0 0
-133z m292 18 c3 -41 11 -81 18 -90 10 -12 41 -15 173 -15 198 0 197 0 197
107 l0 73 125 0 125 0 0 -112 0 -113 -92 -92 -93 -93 -260 0 -260 0 -92 92
-93 93 0 112 0 113 124 0 123 0 5 -75z"/>
</g>
</svg>
